<?xml version="1.0" encoding="utf-8"?>
<!-- Generator: Adobe Illustrator 24.0.0, SVG Export Plug-In . SVG Version: 6.00 Build 0)  -->
<svg version="1.2" baseProfile="tiny" id="Layer_1" xmlns="http://www.w3.org/2000/svg" xmlns:xlink="http://www.w3.org/1999/xlink"
	 x="0px" y="0px" viewBox="0 0 1000 1000" xml:space="preserve">
<rect fill="#CFEEF9" width="1000" height="1000"/>
<g>
	<g>
		<linearGradient id="SVGID_1_" gradientUnits="userSpaceOnUse" x1="474.268" y1="298.9427" x2="330.6636" y2="692.9647">
			<stop  offset="0.4497" style="stop-color:#1B499A"/>
			<stop  offset="0.6788" style="stop-color:#B6C5DF"/>
			<stop  offset="0.7291" style="stop-color:#FFFFFF"/>
			<stop  offset="0.7458" style="stop-color:#DBE9F4"/>
			<stop  offset="1" style="stop-color:#247ABF"/>
		</linearGradient>
		<polygon fill="url(#SVGID_1_)" points="410.5,490.89 362.96,538.44 383.81,559.29 414.65,528.45 		"/>
	</g>
	<g>
		<linearGradient id="SVGID_2_" gradientUnits="userSpaceOnUse" x1="436.5864" y1="285.2093" x2="292.982" y2="679.2313">
			<stop  offset="0.4497" style="stop-color:#1B499A"/>
			<stop  offset="0.6788" style="stop-color:#B6C5DF"/>
			<stop  offset="0.7291" style="stop-color:#FFFFFF"/>
			<stop  offset="0.7458" style="stop-color:#DBE9F4"/>
			<stop  offset="1" style="stop-color:#247ABF"/>
		</linearGradient>
		<polygon fill="url(#SVGID_2_)" points="402.86,421.65 324.52,500 345.31,520.79 407,459.1 		"/>
	</g>
	<g>
		<linearGradient id="SVGID_3_" gradientUnits="userSpaceOnUse" x1="504.2558" y1="309.872" x2="360.6514" y2="703.8939">
			<stop  offset="0.4497" style="stop-color:#1B499A"/>
			<stop  offset="0.6788" style="stop-color:#B6C5DF"/>
			<stop  offset="0.7291" style="stop-color:#FFFFFF"/>
			<stop  offset="0.7458" style="stop-color:#DBE9F4"/>
			<stop  offset="1" style="stop-color:#247ABF"/>
		</linearGradient>
		<polygon fill="url(#SVGID_3_)" points="463.23,515.17 459.72,483.37 455.58,445.82 452.07,414.03 469.46,396.63 504.06,362.03 
			520.68,345.42 520.79,345.31 520.65,345.17 500,324.52 499.93,324.59 465.33,359.19 447.94,376.58 417.07,407.45 421.2,444.89 
			424.71,476.69 428.85,514.24 432.36,546.04 418.15,560.24 401.46,576.94 422.3,597.78 422.3,597.79 422.31,597.79 436.5,583.59 
			467.37,552.72 		"/>
	</g>
	<g>
		<linearGradient id="SVGID_4_" gradientUnits="userSpaceOnUse" x1="545.8453" y1="325.0296" x2="402.241" y2="719.0516">
			<stop  offset="0.4497" style="stop-color:#1B499A"/>
			<stop  offset="0.6788" style="stop-color:#B6C5DF"/>
			<stop  offset="0.7291" style="stop-color:#FFFFFF"/>
			<stop  offset="0.7458" style="stop-color:#DBE9F4"/>
			<stop  offset="1" style="stop-color:#247ABF"/>
		</linearGradient>
		<polygon fill="url(#SVGID_4_)" points="439.96,615.44 440.03,615.51 440.01,615.38 		"/>
	</g>
	<g>
		<linearGradient id="SVGID_5_" gradientUnits="userSpaceOnUse" x1="561.4211" y1="330.7063" x2="417.8168" y2="724.7283">
			<stop  offset="0.4497" style="stop-color:#1B499A"/>
			<stop  offset="0.6788" style="stop-color:#B6C5DF"/>
			<stop  offset="0.7291" style="stop-color:#FFFFFF"/>
			<stop  offset="0.7458" style="stop-color:#DBE9F4"/>
			<stop  offset="1" style="stop-color:#247ABF"/>
		</linearGradient>
		<polygon fill="url(#SVGID_5_)" points="522.87,532.52 519.37,500.73 515.22,463.17 511.71,431.38 528.33,414.76 559.29,383.81 
			538.44,362.96 524.19,377.21 507.57,393.83 472.97,428.43 477.12,465.98 480.62,497.77 484.77,535.33 488.27,567.12 
			470.88,584.52 440.01,615.38 440.03,615.51 460.81,636.29 475.02,622.07 492.42,604.67 527.02,570.07 		"/>
	</g>
	<g>
		<linearGradient id="SVGID_6_" gradientUnits="userSpaceOnUse" x1="648.1967" y1="362.3324" x2="504.5923" y2="756.3543">
			<stop  offset="0.4497" style="stop-color:#1B499A"/>
			<stop  offset="0.6788" style="stop-color:#B6C5DF"/>
			<stop  offset="0.7291" style="stop-color:#FFFFFF"/>
			<stop  offset="0.7458" style="stop-color:#DBE9F4"/>
			<stop  offset="1" style="stop-color:#247ABF"/>
		</linearGradient>
		<polygon fill="url(#SVGID_6_)" points="588.88,508.21 636.29,460.81 615.44,439.96 584.74,470.66 		"/>
	</g>
	<g>
		<linearGradient id="SVGID_7_" gradientUnits="userSpaceOnUse" x1="618.4513" y1="351.4914" x2="474.8469" y2="745.5134">
			<stop  offset="0.4497" style="stop-color:#1B499A"/>
			<stop  offset="0.6788" style="stop-color:#B6C5DF"/>
			<stop  offset="0.7291" style="stop-color:#FFFFFF"/>
			<stop  offset="0.7458" style="stop-color:#DBE9F4"/>
			<stop  offset="1" style="stop-color:#247ABF"/>
		</linearGradient>
		<polygon fill="url(#SVGID_7_)" points="578.2,554.19 574.69,522.4 570.55,484.84 567.05,453.14 597.83,422.35 576.99,401.51 
			562.6,415.9 562.55,415.83 531.71,446.67 535.98,484.11 539.49,515.91 543.63,553.46 547.14,585.26 530.52,601.87 495.93,636.47 
			478.53,653.87 478.46,653.94 478.55,654.03 500,675.48 500.21,675.27 534.81,640.67 551.42,624.06 582.48,593 		"/>
	</g>
	<g>
		<linearGradient id="SVGID_8_" gradientUnits="userSpaceOnUse" x1="686.3337" y1="376.2317" x2="542.7293" y2="770.2537">
			<stop  offset="0.4497" style="stop-color:#1B499A"/>
			<stop  offset="0.6788" style="stop-color:#B6C5DF"/>
			<stop  offset="0.7291" style="stop-color:#FFFFFF"/>
			<stop  offset="0.7458" style="stop-color:#DBE9F4"/>
			<stop  offset="1" style="stop-color:#247ABF"/>
		</linearGradient>
		<polygon fill="url(#SVGID_8_)" points="596.67,578.81 675.48,500 653.94,478.46 592.39,540 		"/>
	</g>
</g>
<g>
	<g>
		<linearGradient id="SVGID_9_" gradientUnits="userSpaceOnUse" x1="474.268" y1="298.9427" x2="330.6636" y2="692.9647">
			<stop  offset="0.1872" style="stop-color:#163978"/>
			<stop  offset="1" style="stop-color:#A3D9EC;stop-opacity:0"/>
		</linearGradient>
		<polygon fill="url(#SVGID_9_)" points="410.5,490.89 362.96,538.44 383.81,559.29 414.65,528.45 		"/>
	</g>
	<g>
		<linearGradient id="SVGID_10_" gradientUnits="userSpaceOnUse" x1="436.5864" y1="285.2093" x2="292.982" y2="679.2313">
			<stop  offset="0.1872" style="stop-color:#163978"/>
			<stop  offset="1" style="stop-color:#A3D9EC;stop-opacity:0"/>
		</linearGradient>
		<polygon fill="url(#SVGID_10_)" points="402.86,421.65 324.52,500 345.31,520.79 407,459.1 		"/>
	</g>
	<g>
		<linearGradient id="SVGID_11_" gradientUnits="userSpaceOnUse" x1="504.2558" y1="309.872" x2="360.6514" y2="703.8939">
			<stop  offset="0.1872" style="stop-color:#163978"/>
			<stop  offset="1" style="stop-color:#A3D9EC;stop-opacity:0"/>
		</linearGradient>
		<polygon fill="url(#SVGID_11_)" points="463.23,515.17 459.72,483.37 455.58,445.82 452.07,414.03 469.46,396.63 504.06,362.03 
			520.68,345.42 520.79,345.31 520.65,345.17 500,324.52 499.93,324.59 465.33,359.19 447.94,376.58 417.07,407.45 421.2,444.89 
			424.71,476.69 428.85,514.24 432.36,546.04 418.15,560.24 401.46,576.94 422.3,597.78 422.3,597.79 422.31,597.79 436.5,583.59 
			467.37,552.72 		"/>
	</g>
	<g>
		<linearGradient id="SVGID_12_" gradientUnits="userSpaceOnUse" x1="545.8453" y1="325.0296" x2="402.241" y2="719.0516">
			<stop  offset="0.1872" style="stop-color:#163978"/>
			<stop  offset="1" style="stop-color:#A3D9EC;stop-opacity:0"/>
		</linearGradient>
		<polygon fill="url(#SVGID_12_)" points="439.96,615.44 440.03,615.51 440.01,615.38 		"/>
	</g>
	<g>
		<linearGradient id="SVGID_13_" gradientUnits="userSpaceOnUse" x1="561.4211" y1="330.7063" x2="417.8168" y2="724.7283">
			<stop  offset="0.1872" style="stop-color:#163978"/>
			<stop  offset="1" style="stop-color:#A3D9EC;stop-opacity:0"/>
		</linearGradient>
		<polygon fill="url(#SVGID_13_)" points="522.87,532.52 519.37,500.73 515.22,463.17 511.71,431.38 528.33,414.76 559.29,383.81 
			538.44,362.96 524.19,377.21 507.57,393.83 472.97,428.43 477.12,465.98 480.62,497.77 484.77,535.33 488.27,567.12 
			470.88,584.52 440.01,615.38 440.03,615.51 460.81,636.29 475.02,622.07 492.42,604.67 527.02,570.07 		"/>
	</g>
	<g>
		<linearGradient id="SVGID_14_" gradientUnits="userSpaceOnUse" x1="648.1967" y1="362.3324" x2="504.5923" y2="756.3543">
			<stop  offset="0.1872" style="stop-color:#163978"/>
			<stop  offset="1" style="stop-color:#A3D9EC;stop-opacity:0"/>
		</linearGradient>
		<polygon fill="url(#SVGID_14_)" points="588.88,508.21 636.29,460.81 615.44,439.96 584.74,470.66 		"/>
	</g>
	<g>
		<linearGradient id="SVGID_15_" gradientUnits="userSpaceOnUse" x1="618.4513" y1="351.4914" x2="474.8469" y2="745.5134">
			<stop  offset="0.1872" style="stop-color:#163978"/>
			<stop  offset="1" style="stop-color:#A3D9EC;stop-opacity:0"/>
		</linearGradient>
		<polygon fill="url(#SVGID_15_)" points="578.2,554.19 574.69,522.4 570.55,484.84 567.05,453.14 597.83,422.35 576.99,401.51 
			562.6,415.9 562.55,415.83 531.71,446.67 535.98,484.11 539.49,515.91 543.63,553.46 547.14,585.26 530.52,601.87 495.93,636.47 
			478.53,653.87 478.46,653.94 478.55,654.03 500,675.48 500.21,675.27 534.81,640.67 551.42,624.06 582.48,593 		"/>
	</g>
	<g>
		<linearGradient id="SVGID_16_" gradientUnits="userSpaceOnUse" x1="686.3337" y1="376.2317" x2="542.7293" y2="770.2537">
			<stop  offset="0.1872" style="stop-color:#163978"/>
			<stop  offset="1" style="stop-color:#A3D9EC;stop-opacity:0"/>
		</linearGradient>
		<polygon fill="url(#SVGID_16_)" points="596.67,578.81 675.48,500 653.94,478.46 592.39,540 		"/>
	</g>
</g>
</svg>
