<?xml version="1.0" encoding="utf-8"?>
<!-- Generator: Adobe Illustrator 24.0.0, SVG Export Plug-In . SVG Version: 6.00 Build 0)  -->
<svg version="1.2" baseProfile="tiny" id="Layer_1" xmlns="http://www.w3.org/2000/svg" xmlns:xlink="http://www.w3.org/1999/xlink"
	 x="0px" y="0px" viewBox="0 0 1000 1000" xml:space="preserve">
<rect fill="#D0F4DC" width="1000" height="1000"/>
<g>
	<linearGradient id="SVGID_1_" gradientUnits="userSpaceOnUse" x1="408.5765" y1="704.7371" x2="577.104" y2="327.3305">
		<stop  offset="0.2374" style="stop-color:#026B5C"/>
		<stop  offset="0.6229" style="stop-color:#EAF5F4"/>
		<stop  offset="0.6341" style="stop-color:#D7ECE4"/>
		<stop  offset="1" style="stop-color:#6EBD8B"/>
	</linearGradient>
	<path fill="url(#SVGID_1_)" d="M620.33,626.72l-17.53-32.31l-13.55-24.98l-1.66-3.06l-8.43-15.53c6.97-4.53,13.42-9.8,19.23-15.7
		c8.18-8.28,15.11-17.8,20.49-28.24c4.93-9.58,8.56-19.94,10.66-30.84c0.22-1.14,0.42-2.29,0.61-3.45
		c0.96-5.99,1.46-12.13,1.46-18.39c0-6.26-0.5-12.4-1.46-18.39c-1.95-12.17-5.81-23.71-11.26-34.3
		c-5.38-10.44-12.31-19.96-20.49-28.24c-20.89-21.17-49.92-34.3-82.02-34.3H361.07v187.96c8.79-9.83,20.77-16.76,34.3-19.14
		c0.5-0.09,1-0.17,1.5-0.25c2.92-0.44,5.9-0.67,8.94-0.67h103.41c2.12,0,4.21-0.13,6.26-0.37c12.19-1.45,23.12-7.08,31.31-15.41
		c5.14-5.23,9.19-11.52,11.81-18.51c2.14-5.72,3.31-11.92,3.31-18.39c0-6.47-1.17-12.66-3.31-18.39
		c-7.47-20.01-26.79-34.3-49.38-34.3h-81.54v71.07h-32.31v-99.31h121.03c24.52,0,46.53,10.96,61.38,28.24
		c8.35,9.71,14.43,21.41,17.44,34.3c1.38,5.91,2.11,12.06,2.11,18.39s-0.73,12.48-2.11,18.39c-3.01,12.88-9.09,24.59-17.44,34.3
		c-4.42,5.14-9.47,9.73-15.04,13.63c-9.5,6.66-20.49,11.33-32.36,13.41c-4.54,0.8-9.21,1.21-13.98,1.21h-97.87
		c-3.28,0-6.49,0.28-9.62,0.81c-4.74,0.8-9.27,2.18-13.54,4.07c-13.09,5.78-23.63,16.32-29.42,29.41
		c-3.14,7.09-4.88,14.92-4.88,23.16v68.42h100.9v-91.58h14.49l11.37,22.7l1.14,2.28l16.18,32.31l17.17,34.3h116.61L620.33,626.72z
		 M461.97,435.82h47.24c3.19,0,6.19,0.81,8.8,2.24v0.01c5.71,3.12,9.59,9.18,9.59,16.14c0,0.48-0.02,0.96-0.06,1.43v0.01
		c-0.74,9.47-8.68,16.95-18.34,16.95h-47.24V435.82z M427.67,626.72h-32.31v-34.66c0.25-10.94,8.27-20.51,19.45-22.33
		c1.17-0.19,2.34-0.29,3.49-0.3h9.37V626.72z M516.39,569.43c10.74,0,21.14-1.47,31-4.22l2.29,4.22l8.33,15.31l5.26,9.67
		l17.58,32.31h-36.74l-16.14-32.31l-0.55-1.12l-11.74-23.5l-0.18-0.36"/>
</g>
<g>
	<linearGradient id="SVGID_2_" gradientUnits="userSpaceOnUse" x1="408.5765" y1="704.7371" x2="577.104" y2="327.3305">
		<stop  offset="0.1313" style="stop-color:#026052"/>
		<stop  offset="0.7709" style="stop-color:#6EBD8B;stop-opacity:0"/>
	</linearGradient>
	<path fill="url(#SVGID_2_)" d="M620.33,626.72l-17.53-32.31l-13.55-24.98l-1.66-3.06l-8.43-15.53c6.97-4.53,13.42-9.8,19.23-15.7
		c8.18-8.28,15.11-17.8,20.49-28.24c4.93-9.58,8.56-19.94,10.66-30.84c0.22-1.14,0.42-2.29,0.61-3.45
		c0.96-5.99,1.46-12.13,1.46-18.39c0-6.26-0.5-12.4-1.46-18.39c-1.95-12.17-5.81-23.71-11.26-34.3
		c-5.38-10.44-12.31-19.96-20.49-28.24c-20.89-21.17-49.92-34.3-82.02-34.3H361.07v187.96c8.79-9.83,20.77-16.76,34.3-19.14
		c0.5-0.09,1-0.17,1.5-0.25c2.92-0.44,5.9-0.67,8.94-0.67h103.41c2.12,0,4.21-0.13,6.26-0.37c12.19-1.45,23.12-7.08,31.31-15.41
		c5.14-5.23,9.19-11.52,11.81-18.51c2.14-5.72,3.31-11.92,3.31-18.39c0-6.47-1.17-12.66-3.31-18.39
		c-7.47-20.01-26.79-34.3-49.38-34.3h-81.54v71.07h-32.31v-99.31h121.03c24.52,0,46.53,10.96,61.38,28.24
		c8.35,9.71,14.43,21.41,17.44,34.3c1.38,5.91,2.11,12.06,2.11,18.39s-0.73,12.48-2.11,18.39c-3.01,12.88-9.09,24.59-17.44,34.3
		c-4.42,5.14-9.47,9.73-15.04,13.63c-9.5,6.66-20.49,11.33-32.36,13.41c-4.54,0.8-9.21,1.21-13.98,1.21h-97.87
		c-3.28,0-6.49,0.28-9.62,0.81c-4.74,0.8-9.27,2.18-13.54,4.07c-13.09,5.78-23.63,16.32-29.42,29.41
		c-3.14,7.09-4.88,14.92-4.88,23.16v68.42h100.9v-91.58h14.49l11.37,22.7l1.14,2.28l16.18,32.31l17.17,34.3h116.61L620.33,626.72z
		 M461.97,435.82h47.24c3.19,0,6.19,0.81,8.8,2.24v0.01c5.71,3.12,9.59,9.18,9.59,16.14c0,0.48-0.02,0.96-0.06,1.43v0.01
		c-0.74,9.47-8.68,16.95-18.34,16.95h-47.24V435.82z M427.67,626.72h-32.31v-34.66c0.25-10.94,8.27-20.51,19.45-22.33
		c1.17-0.19,2.34-0.29,3.49-0.3h9.37V626.72z M516.39,569.43c10.74,0,21.14-1.47,31-4.22l2.29,4.22l8.33,15.31l5.26,9.67
		l17.58,32.31h-36.74l-16.14-32.31l-0.55-1.12l-11.74-23.5l-0.18-0.36"/>
</g>
</svg>
